<svg width="32" height="32" viewBox="0 0 32 32" fill="none" xmlns="http://www.w3.org/2000/svg">
<path d="M12.001 16.0005C12.001 13.7913 13.7913 12 16.0005 12C18.2096 12 20.001 13.7913 20.001 16.0005C20.001 18.2096 18.2096 20.001 16.0005 20.001C13.7913 20.001 12.001 18.2096 12.001 16.0005ZM9.83838 16.0005C9.83838 19.4038 12.5971 22.1626 16.0005 22.1626C19.4038 22.1626 22.1626 19.4038 22.1626 16.0005C22.1626 12.5971 19.4038 9.83838 16.0005 9.83838C12.5971 9.83838 9.83838 12.5971 9.83838 16.0005ZM20.9665 9.59405C20.9664 9.87886 21.0507 10.1573 21.2088 10.3942C21.367 10.6311 21.5918 10.8157 21.8549 10.9248C22.118 11.0339 22.4075 11.0626 22.6869 11.0071C22.9663 10.9517 23.2229 10.8146 23.4244 10.6133C23.6259 10.412 23.7631 10.1555 23.8188 9.87613C23.8745 9.59681 23.8461 9.30725 23.7372 9.04407C23.6283 8.78089 23.4438 8.55591 23.2071 8.39758C22.9703 8.23925 22.6919 8.15468 22.4071 8.15457H22.4065C22.0248 8.15474 21.6587 8.30644 21.3887 8.57634C21.1186 8.84624 20.9668 9.21228 20.9665 9.59405ZM11.1523 25.7686C9.98229 25.7153 9.34636 25.5204 8.92375 25.3558C8.36347 25.1376 7.96371 24.8779 7.54341 24.4581C7.1231 24.0384 6.86293 23.639 6.64577 23.0787C6.48103 22.6563 6.28614 22.0202 6.23295 20.8502C6.17477 19.5853 6.16316 19.2053 6.16316 16.0006C6.16316 12.7959 6.17574 12.4169 6.23295 11.1509C6.28624 9.98094 6.48256 9.34607 6.64577 8.9224C6.86389 8.36213 7.12368 7.96237 7.54341 7.54206C7.96313 7.12176 8.36251 6.86159 8.92375 6.64443C9.34617 6.47968 9.98229 6.2848 11.1523 6.23161C12.4172 6.17343 12.7972 6.16181 16.0005 6.16181C19.2037 6.16181 19.5841 6.17439 20.8501 6.23161C22.0201 6.28489 22.655 6.48122 23.0787 6.64443C23.6389 6.86159 24.0387 7.12233 24.459 7.54206C24.8793 7.96179 25.1385 8.36213 25.3566 8.9224C25.5214 9.34482 25.7163 9.98094 25.7694 11.1509C25.8276 12.4169 25.8392 12.7959 25.8392 16.0006C25.8392 19.2053 25.8276 19.5842 25.7694 20.8502C25.7162 22.0202 25.5203 22.6561 25.3566 23.0787C25.1385 23.639 24.8787 24.0388 24.459 24.4581C24.0393 24.8775 23.6389 25.1376 23.0787 25.3558C22.6562 25.5205 22.0201 25.7154 20.8501 25.7686C19.5852 25.8268 19.2052 25.8384 16.0005 25.8384C12.7958 25.8384 12.4168 25.8268 11.1523 25.7686ZM11.0529 4.07267C9.7754 4.13085 8.90244 4.33342 8.14007 4.63007C7.35053 4.93642 6.68216 5.34741 6.01426 6.01426C5.34636 6.6811 4.93642 7.35053 4.63007 8.14007C4.33342 8.90292 4.13085 9.7754 4.07267 11.0529C4.01354 12.3325 4 12.7415 4 16.0005C4 19.2594 4.01354 19.6685 4.07267 20.948C4.13085 22.2257 4.33342 23.098 4.63007 23.8609C4.93642 24.6499 5.34645 25.3201 6.01426 25.9867C6.68206 26.6533 7.35053 27.0637 8.14007 27.3709C8.90388 27.6675 9.7754 27.8701 11.0529 27.9283C12.3331 27.9865 12.7415 28.001 16.0005 28.001C19.2594 28.001 19.6685 27.9874 20.948 27.9283C22.2257 27.8701 23.098 27.6675 23.8609 27.3709C24.6499 27.0637 25.3188 26.6535 25.9867 25.9867C26.6546 25.3199 27.0637 24.6499 27.3709 23.8609C27.6675 23.098 27.8711 22.2256 27.9283 20.948C27.9865 19.6675 28 19.2594 28 16.0005C28 12.7415 27.9865 12.3325 27.9283 11.0529C27.8701 9.7753 27.6675 8.90244 27.3709 8.14007C27.0637 7.35101 26.6535 6.68216 25.9867 6.01426C25.3199 5.34636 24.6499 4.93642 23.8619 4.63007C23.098 4.33342 22.2256 4.12989 20.949 4.07267C19.6695 4.0145 19.2604 4 16.0014 4C12.7425 4 12.3331 4.01354 11.0529 4.07267Z" fill="url(#paint0_radial_102_42)"/>
<path d="M12.001 16.0005C12.001 13.7913 13.7913 12 16.0005 12C18.2096 12 20.001 13.7913 20.001 16.0005C20.001 18.2096 18.2096 20.001 16.0005 20.001C13.7913 20.001 12.001 18.2096 12.001 16.0005ZM9.83838 16.0005C9.83838 19.4038 12.5971 22.1626 16.0005 22.1626C19.4038 22.1626 22.1626 19.4038 22.1626 16.0005C22.1626 12.5971 19.4038 9.83838 16.0005 9.83838C12.5971 9.83838 9.83838 12.5971 9.83838 16.0005ZM20.9665 9.59405C20.9664 9.87886 21.0507 10.1573 21.2088 10.3942C21.367 10.6311 21.5918 10.8157 21.8549 10.9248C22.118 11.0339 22.4075 11.0626 22.6869 11.0071C22.9663 10.9517 23.2229 10.8146 23.4244 10.6133C23.6259 10.412 23.7631 10.1555 23.8188 9.87613C23.8745 9.59681 23.8461 9.30725 23.7372 9.04407C23.6283 8.78089 23.4438 8.55591 23.2071 8.39758C22.9703 8.23925 22.6919 8.15468 22.4071 8.15457H22.4065C22.0248 8.15474 21.6587 8.30644 21.3887 8.57634C21.1186 8.84624 20.9668 9.21228 20.9665 9.59405ZM11.1523 25.7686C9.98229 25.7153 9.34636 25.5204 8.92375 25.3558C8.36347 25.1376 7.96371 24.8779 7.54341 24.4581C7.1231 24.0384 6.86293 23.639 6.64577 23.0787C6.48103 22.6563 6.28614 22.0202 6.23295 20.8502C6.17477 19.5853 6.16316 19.2053 6.16316 16.0006C6.16316 12.7959 6.17574 12.4169 6.23295 11.1509C6.28624 9.98094 6.48256 9.34607 6.64577 8.9224C6.86389 8.36213 7.12368 7.96237 7.54341 7.54206C7.96313 7.12176 8.36251 6.86159 8.92375 6.64443C9.34617 6.47968 9.98229 6.2848 11.1523 6.23161C12.4172 6.17343 12.7972 6.16181 16.0005 6.16181C19.2037 6.16181 19.5841 6.17439 20.8501 6.23161C22.0201 6.28489 22.655 6.48122 23.0787 6.64443C23.6389 6.86159 24.0387 7.12233 24.459 7.54206C24.8793 7.96179 25.1385 8.36213 25.3566 8.9224C25.5214 9.34482 25.7163 9.98094 25.7694 11.1509C25.8276 12.4169 25.8392 12.7959 25.8392 16.0006C25.8392 19.2053 25.8276 19.5842 25.7694 20.8502C25.7162 22.0202 25.5203 22.6561 25.3566 23.0787C25.1385 23.639 24.8787 24.0388 24.459 24.4581C24.0393 24.8775 23.6389 25.1376 23.0787 25.3558C22.6562 25.5205 22.0201 25.7154 20.8501 25.7686C19.5852 25.8268 19.2052 25.8384 16.0005 25.8384C12.7958 25.8384 12.4168 25.8268 11.1523 25.7686ZM11.0529 4.07267C9.7754 4.13085 8.90244 4.33342 8.14007 4.63007C7.35053 4.93642 6.68216 5.34741 6.01426 6.01426C5.34636 6.6811 4.93642 7.35053 4.63007 8.14007C4.33342 8.90292 4.13085 9.7754 4.07267 11.0529C4.01354 12.3325 4 12.7415 4 16.0005C4 19.2594 4.01354 19.6685 4.07267 20.948C4.13085 22.2257 4.33342 23.098 4.63007 23.8609C4.93642 24.6499 5.34645 25.3201 6.01426 25.9867C6.68206 26.6533 7.35053 27.0637 8.14007 27.3709C8.90388 27.6675 9.7754 27.8701 11.0529 27.9283C12.3331 27.9865 12.7415 28.001 16.0005 28.001C19.2594 28.001 19.6685 27.9874 20.948 27.9283C22.2257 27.8701 23.098 27.6675 23.8609 27.3709C24.6499 27.0637 25.3188 26.6535 25.9867 25.9867C26.6546 25.3199 27.0637 24.6499 27.3709 23.8609C27.6675 23.098 27.8711 22.2256 27.9283 20.948C27.9865 19.6675 28 19.2594 28 16.0005C28 12.7415 27.9865 12.3325 27.9283 11.0529C27.8701 9.7753 27.6675 8.90244 27.3709 8.14007C27.0637 7.35101 26.6535 6.68216 25.9867 6.01426C25.3199 5.34636 24.6499 4.93642 23.8619 4.63007C23.098 4.33342 22.2256 4.12989 20.949 4.07267C19.6695 4.0145 19.2604 4 16.0014 4C12.7425 4 12.3331 4.01354 11.0529 4.07267Z" fill="url(#paint1_radial_102_42)"/>
<defs>
<radialGradient id="paint0_radial_102_42" cx="0" cy="0" r="1" gradientUnits="userSpaceOnUse" gradientTransform="translate(7.18867 28.1143) scale(31.3312 31.3312)">
<stop offset="0.09" stop-color="#FA8F21"/>
<stop offset="0.78" stop-color="#D82D7E"/>
</radialGradient>
<radialGradient id="paint1_radial_102_42" cx="0" cy="0" r="1" gradientUnits="userSpaceOnUse" gradientTransform="translate(18.5555 29.1896) scale(24.6933)">
<stop offset="0.64" stop-color="#8C3AAA" stop-opacity="0"/>
<stop offset="1" stop-color="#8C3AAA"/>
</radialGradient>
</defs>
</svg>
