<svg width="32" height="32" viewBox="0 0 32 32" fill="none" xmlns="http://www.w3.org/2000/svg">
<path d="M16 7C12.13 7 9 9.817 9 13.3C9 18.025 16 25 16 25C16 25 23 18.025 23 13.3C23 9.817 19.87 7 16 7ZM11 13.3C11 10.816 13.24 8.8 16 8.8C18.76 8.8 21 10.816 21 13.3C21 15.892 18.12 19.771 16 22.192C13.92 19.789 11 15.865 11 13.3Z" fill="#FF3A33"/>
<path d="M16 16C17.3807 16 18.5 14.8807 18.5 13.5C18.5 12.1193 17.3807 11 16 11C14.6193 11 13.5 12.1193 13.5 13.5C13.5 14.8807 14.6193 16 16 16Z" fill="#FF3A33"/>
</svg>
