<svg width="32" height="32" viewBox="0 0 32 32" fill="none" xmlns="http://www.w3.org/2000/svg">
<path d="M22.0002 9.78437C22.0002 9.03358 21.4728 8.16005 20.8235 7.83489L11.411 3.1222C10.7615 2.79722 10.2344 3.14281 10.2344 3.8936V22.2644C10.2344 23.0152 10.7615 23.8888 11.411 24.2139L20.8235 28.9264C21.4728 29.2516 22.0002 28.906 22.0002 28.1552V9.78437Z" fill="#FF3A33"/>
<path d="M10.6808 3.05042L9.36499 3.70957L11.1216 4.21341L12.083 3.45893L10.6808 3.05042ZM20.286 29.6286L21.6014 28.9756L20.7656 28.5604L20.286 29.6286Z" fill="#FF3A33"/>
<path d="M20.7658 10.4022C20.7658 9.65138 20.2385 8.77784 19.5891 8.45269L10.1766 3.73999C9.5271 3.41502 9 3.7606 9 4.5114V22.8821C9 23.633 9.5271 24.5066 10.1766 24.8315L19.5891 29.5442C20.2385 29.8694 20.7658 29.5238 20.7658 28.7728V10.4022Z" fill="white"/>
<path d="M20.2864 10.5181C20.2864 9.83024 19.8034 9.02977 19.2084 8.73184L10.5836 4.41369C9.98858 4.11576 9.50562 4.43245 9.50562 5.1205V22.7133C9.50562 23.4012 9.98858 24.2016 10.5836 24.4996L19.2084 28.8177C19.8034 29.1157 20.2864 28.799 20.2864 28.1109V10.5181Z" fill="white"/>
<path d="M21.532 12.3389C21.532 12.2235 21.4509 12.0892 21.3512 12.0393C21.2515 11.9893 21.1704 12.0425 21.1704 12.1578V16.0934C21.1704 16.2088 21.2515 16.3431 21.3512 16.393C21.4509 16.4431 21.532 16.3899 21.532 16.2745V12.3389ZM21.532 17.2485C21.532 17.1331 21.4509 16.999 21.3512 16.9489C21.2515 16.8991 21.1704 16.9522 21.1704 17.0676V18.3456C21.1704 18.461 21.2515 18.5952 21.3512 18.6452C21.4509 18.6951 21.532 18.6421 21.532 18.5267V17.2485Z" fill="white"/>
<path d="M21.532 14.3063L21.1704 14.1254V14.4266L21.532 14.6077V14.3063Z" fill="#FF3A33"/>
<path d="M16.5552 8.48029C16.5552 8.21825 16.3712 7.91333 16.1446 7.79998L13.6056 6.52878C13.379 6.41525 13.1948 6.53596 13.1948 6.798C13.1948 7.06004 13.379 7.36496 13.6056 7.47832L16.1446 8.74951C16.3712 8.86305 16.5552 8.74252 16.5552 8.48029Z" fill="black"/>
<path d="M11.4524 14.4475C11.1729 14.3802 10.9079 14.3203 10.9079 14.1812C10.9079 13.9341 11.721 13.5386 12.075 13.5047C12.111 13.5026 12.1471 13.5 12.1771 13.5C12.2823 13.5 12.3568 13.5214 12.343 13.5985C12.3069 13.8169 11.7679 14.0853 11.6543 14.0853C11.6375 14.0853 11.6213 14.0853 11.6213 14.0707C11.6213 14.0373 11.6381 13.9868 11.6795 13.9461C11.6243 13.9748 11.5167 14.078 11.5167 14.1765C11.5167 14.2291 11.5996 14.2484 11.6549 14.2484C11.9482 14.2484 12.4289 13.9388 12.4349 13.6538C12.4379 13.4693 12.2691 13.4166 12.0179 13.4234C11.614 13.4354 10.721 13.757 10.721 14.1598C10.721 14.3709 11.0972 14.4141 11.4289 14.4933C11.7 14.5579 11.9295 14.6465 11.9295 14.7956C11.9295 15.1578 10.5798 15.7357 9.91334 15.7357C9.825 15.7357 9.68077 15.7331 9.68077 15.6398C9.68077 15.4627 10.3833 14.9327 11.1159 14.7596C10.7583 14.7518 9.5083 15.3251 9.5083 15.68C9.5083 15.8697 9.77392 15.915 9.95601 15.915C10.7108 15.915 12.0882 15.4017 12.0882 14.8769C12.0882 14.6106 11.7649 14.522 11.4524 14.4475Z" fill="#FF3A33"/>
<path d="M19.9925 17.6279C19.6726 17.7382 18.9535 17.9937 18.6969 17.9681C18.7694 17.8207 19.6353 17.3444 19.7555 17.3123C19.819 17.2938 19.7753 17.0809 19.6864 17.0505C19.5606 17.0074 18.7223 17.2148 18.1554 17.4237C18.0501 17.4608 17.952 17.5004 17.8891 17.5375C17.9834 17.4673 18.2784 17.2972 18.5382 17.1591C18.7034 17.0724 18.8983 16.9857 18.945 17.0054C18.9733 17.0187 18.9811 17.0397 18.9867 17.027C19.0213 16.9473 18.9347 16.7747 18.8421 16.743C18.8243 16.7369 18.8046 16.7367 18.7869 16.7424C18.6865 16.7673 18.5126 16.8464 18.3418 16.9376C18.2793 16.9356 18.2171 16.9267 18.1567 16.9112C18.0045 16.8701 17.9476 16.7663 17.9202 16.6434C17.917 16.6313 17.8872 16.5918 17.849 16.5824C17.7993 16.569 17.6469 16.6267 17.622 16.6547C17.5933 16.6815 17.5887 16.7899 17.5948 16.825C17.2055 17.0653 16.4547 17.3943 16.2793 17.2501C16.1051 17.1029 17.3455 16.2928 18.0154 16.5223C18.0413 16.5312 18.068 16.5477 18.1037 16.5635C18.1185 16.5686 18.1297 16.5724 18.1152 16.5565C18.0976 16.5285 18.0537 16.4732 17.913 16.425C17.3768 16.2413 16.4609 16.4299 16.1385 16.8634C16.1225 16.8592 16.106 16.8565 16.0893 16.8554C15.9983 16.8498 15.9058 16.8474 15.8133 16.8451L16.1955 16.5621C16.3055 16.4751 16.3199 16.491 16.3268 16.5044C16.3583 16.4712 16.2776 16.2458 16.1948 16.2504C16.1636 16.2521 16.1319 16.2583 16.0803 16.2721C16.01 16.291 15.9027 16.3244 15.7089 16.3807C15.5098 16.4394 15.307 16.4884 15.1013 16.5275C14.8983 16.5642 14.7143 16.5964 14.705 16.5786C14.6791 16.5405 15.1197 16.2408 15.5834 16.1029C15.8336 16.0313 16.0864 15.9895 16.2893 16.0051C16.3429 16.0088 16.3959 16.0179 16.4473 16.0324C16.561 16.064 16.6105 16.1361 16.569 16.2316C16.5482 16.2795 16.5095 16.3101 16.4822 16.3338C16.477 16.3357 16.4794 16.3402 16.4881 16.3395C16.5395 16.3094 16.6 16.2679 16.6236 16.2137C16.6887 16.0638 16.5259 15.9494 16.3811 15.8998C16.37 15.896 16.3589 15.8922 16.3476 15.8889C15.9939 15.7812 15.5206 15.8404 15.1265 15.97C15.0325 16.0008 14.9409 16.0366 14.8523 16.0773C14.5056 16.1949 14.0521 16.3332 13.8674 16.3136C13.9693 16.1984 14.7918 15.6449 14.9379 15.7096C14.9661 15.7229 14.9779 15.7452 14.9834 15.7325C15.018 15.6528 14.9255 15.4745 14.8402 15.4453C14.83 15.4416 14.8191 15.4398 14.8082 15.4398C14.7972 15.4398 14.7864 15.4417 14.7764 15.4454C14.628 15.4847 14.3564 15.624 14.1054 15.7786C13.7553 15.8975 13.2659 16.0524 13.0622 16.0343C13.0733 16.0088 13.1047 15.9756 13.1463 15.9385C13.3459 15.7725 13.8301 15.539 13.8347 15.5772C13.8661 15.544 13.8165 15.3255 13.7287 15.3321C13.6168 15.3451 13.289 15.4635 13.2001 15.4918C12.947 15.5661 12.2889 15.7108 12.1515 15.704C12.1467 15.7042 12.1419 15.7035 12.1375 15.7019C12.133 15.7004 12.1289 15.6981 12.1256 15.6951C12.0992 15.6677 12.5513 15.361 13.0151 15.2231C13.3317 15.1301 13.6601 15.0887 13.8788 15.1528C13.9927 15.1844 14.0421 15.2565 14.0006 15.352C13.9798 15.3999 13.941 15.4305 13.91 15.4529C13.905 15.4549 13.911 15.4606 13.9197 15.4599C13.9748 15.431 14.0316 15.3883 14.0552 15.3341C14.1203 15.1842 13.9575 15.0698 13.8168 15.0216C13.1359 14.7883 11.9799 15.2093 11.8289 15.5569C11.8012 15.6207 11.845 15.7749 11.8989 15.8264C11.9074 15.8346 11.9172 15.8416 11.9281 15.8473C12.0834 15.9006 13.0378 15.612 13.1904 15.5544C13.0854 15.61 12.9218 15.7225 12.8262 15.8252C12.7906 15.868 12.7592 15.9012 12.7454 15.9329C12.7205 15.9903 12.7617 16.0814 12.8024 16.1246C12.8227 16.1462 12.8385 16.1589 12.857 16.1653C13.015 16.2194 13.483 16.07 13.9034 15.9099C13.7227 16.0339 13.581 16.1524 13.5502 16.2232C13.5253 16.2806 13.5831 16.392 13.6355 16.4283C13.649 16.4358 13.6634 16.442 13.6785 16.4467C13.8258 16.4857 14.1975 16.3768 14.5662 16.2433C14.4811 16.3068 14.4204 16.3722 14.3931 16.4351C14.3859 16.455 14.383 16.4759 14.3848 16.4967C14.3877 16.5674 14.421 16.6604 14.4596 16.7034C14.4684 16.7129 14.4796 16.7205 14.4924 16.7256C14.5702 16.7523 14.8481 16.6899 15.1195 16.622C15.3877 16.5527 15.6591 16.4661 15.7342 16.4406C15.8016 16.4193 15.8705 16.4013 15.9404 16.3867C15.9404 16.3867 15.6092 16.6255 15.4074 16.7694C15.3562 16.8058 15.3137 16.8362 15.2862 16.8552L15.2661 16.8563C14.7885 16.8859 14.3231 16.9623 13.9326 17.0727C13.5086 17.1925 13.1729 17.3523 13.0055 17.5353C12.9718 17.5697 12.9448 17.6087 12.9255 17.6508C12.8673 17.7847 12.9585 17.8782 13.0954 17.9251C13.1364 17.9397 13.1794 17.9495 13.2231 17.9542C13.3901 17.9716 13.5653 17.958 13.7451 17.9208C13.9294 17.8826 14.1186 17.8196 14.309 17.739C14.8014 17.5306 15.3016 17.2058 15.7455 16.8948C15.8683 16.8928 15.9953 16.8892 16.1215 16.8882C16.1002 16.9196 16.0819 16.9526 16.067 16.9868C16.04 17.0521 16.0427 17.1243 16.0747 17.189C16.1066 17.2536 16.1653 17.3058 16.239 17.3351C16.623 17.4886 17.5882 17.2917 17.8726 16.9019C17.8883 16.9146 17.9226 16.9337 17.9782 16.9527C18.0521 16.9781 18.13 16.9936 18.2089 16.9988C18.2163 16.9991 18.2236 16.9995 18.2308 16.9997C18.2285 17.0011 18.2261 17.0024 18.2236 17.0038C18.0378 17.1086 17.8155 17.2486 17.6615 17.3681C17.5053 17.4831 17.4494 17.5629 17.4471 17.5877C17.4365 17.6904 17.481 17.8228 17.6018 17.8385C17.5559 17.7972 17.6192 17.72 17.7635 17.6521C17.8252 17.6194 17.8891 17.5899 17.9549 17.5638C18.3391 17.4023 19.0512 17.203 19.4059 17.1889C19.1483 17.2729 18.4877 17.6584 18.4087 17.8402C18.3935 17.8752 18.3985 17.9322 18.4214 17.9873C18.4417 18.0383 18.47 18.081 18.5069 18.0936C18.7291 18.1697 19.5608 17.8501 20.0143 17.6575C20.0292 17.6513 20.0217 17.6195 19.9925 17.6279ZM14.7731 17.1834C14.4236 17.3907 14.07 17.5683 13.7473 17.6667C13.6218 17.705 13.501 17.7313 13.3872 17.7428C13.317 17.748 13.2458 17.7456 13.1939 17.7278C13.1456 17.7113 13.1194 17.684 13.1388 17.6394C13.1526 17.6075 13.1904 17.5695 13.2589 17.5194C13.4295 17.3928 13.6352 17.2873 13.8703 17.201C14.2312 17.0684 14.6613 16.9815 15.1397 16.9344C15.1521 16.9332 15.1645 16.9319 15.1769 16.9308C15.0444 17.0175 14.9091 17.1027 14.7731 17.1834Z" fill="#FF3A33"/>
<path d="M15.2755 15.5114C15.2405 15.5114 15.2104 15.4989 15.1853 15.4738C15.1603 15.4487 15.1477 15.4186 15.1477 15.3836C15.1477 15.3485 15.1603 15.3185 15.1853 15.2934C15.2104 15.2683 15.2405 15.2557 15.2755 15.2557C15.3106 15.2557 15.3407 15.2683 15.3657 15.2934C15.3908 15.3185 15.4034 15.3485 15.4034 15.3836C15.4034 15.4068 15.3975 15.4281 15.3856 15.4475C15.3743 15.4669 15.3589 15.4825 15.3395 15.4944C15.3205 15.5057 15.2992 15.5114 15.2755 15.5114Z" fill="#FF3A33"/>
</svg>
