<svg
	width="64px"
	height="64px"
	viewBox="0 0 1024 1024"
	class="icon"
	version="1.1"
	xmlns="http://www.w3.org/2000/svg"
	fill="#000000"
>
	<g id="SVGRepo_bgCarrier" stroke-width="0"></g>
	<g id="SVGRepo_tracerCarrier" stroke-linecap="round" stroke-linejoin="round"></g>
	<g id="SVGRepo_iconCarrier">
		<path
			d="M725.719319 260.364622c0-28.813231-17.549235-62.336861-39.159159-74.815533L373.308075 4.689565C351.69109-7.782044 334.148917 5.480517 334.148917 34.293748v705.020226c0 28.813231 17.542173 62.336861 39.159158 74.815533l313.252085 180.852462c21.609924 12.478672 39.159159-0.783889 39.159159-29.597121V260.364622z"
			fill="#ff3a33"
		></path>
		<path
			d="M349.021629 1.935359L305.229754 27.231682l58.459787 19.335938 31.998223-28.954473L349.021629 1.935359zM668.68607 1021.930815l43.777751-25.063275-27.817481-15.932022-15.96027 40.995297z"
			fill="#ff3a33"
		></path>
		<path
			d="M684.64634 284.079041c0-28.813231-17.549235-62.336861-39.159158-74.815532L332.235096 28.403985C310.618111 15.932375 293.075938 29.194936 293.075938 58.008168v705.013163c0 28.820294 17.542173 62.343923 39.159158 74.815533l313.252086 180.859524c21.609924 12.478672 39.159159-0.783889 39.159158-29.604183V284.079041z"
			fill="#FFFFFF"
		></path>
		<path
			d="M668.68607 288.521081c0-26.398005-16.073263-57.117994-35.875298-68.55148L345.773078 54.251148c-19.802035-11.433486-35.875298 0.720331-35.875298 27.125398v675.161808c0 26.398005 16.073263 57.117994 35.875298 68.55148L632.810772 990.808287c19.802035 11.433486 35.875298-0.720331 35.875298-27.125397V288.521081z"
			fill="#FFFFFF"
		></path>
		<path
			d="M710.140401 358.393167c0-4.427916-2.697709-9.583224-6.016881-11.497044-3.319171-1.920882-6.016881 0.120055-6.016881 4.547971v151.036417c0 4.427916 2.697709 9.583224 6.016881 11.497044 3.319171 1.920882 6.016881-0.120055 6.016881-4.547971V358.393167zM710.140401 546.809102c0-4.427916-2.697709-9.576162-6.016881-11.497044-3.319171-1.91382-6.016881 0.127117-6.016881 4.555033v49.046052c0 4.427916 2.697709 9.576162 6.016881 11.497044 3.319171 1.91382 6.016881-0.120055 6.016881-4.54797v-49.053115z"
			fill="#FFFFFF"
		></path>
		<path
			d="M710.140401 433.907845l-12.033762-6.942012v11.560603l12.033762 6.949074v-11.567665z"
			fill="#ff3a33"
		></path>
		<path
			d="M544.527878 210.322819c0-10.056383-6.122812-21.758227-13.665098-26.10846l-84.497626-48.784756c-7.542287-4.357295-13.672161 0.275421-13.672161 10.331803 0 10.056383 6.129874 21.758227 13.672161 26.10846l84.497626 48.784756c7.542287 4.357295 13.665099-0.268359 13.665098-10.331803z"
		></path>
		<path
			transform="translate(310, 400), scale(0.2)"
			fill="#ff3a33"
			width="20"
			height="20"
			d="M323.5,196.6c-46.5-12.9-90.6-24.4-90.6-51.1c0-47.4,135.3-123.3,194.2-129.8c6-0.4,12-0.9,17-0.9
	c17.5,0,29.9,4.1,27.6,18.9c-6,41.9-95.7,93.4-114.6,93.4c-2.8,0-5.5,0-5.5-2.8c0-6.4,2.8-16.1,9.7-23.9
	c-9.2,5.5-27.1,25.3-27.1,44.2c0,10.1,13.8,13.8,23,13.8c48.8,0,128.8-59.4,129.8-114.1c0.5-35.4-27.6-45.5-69.4-44.2
	c-67.2,2.3-215.8,64-215.8,141.3c0,40.5,62.6,48.8,117.8,64c45.1,12.4,83.3,29.4,83.3,58c0,69.5-224.6,180.4-335.5,180.4
	c-14.7,0-38.7-0.5-38.7-18.4c0-34,116.9-135.7,238.8-168.9C208,255,0,365,0,433.1c0,36.4,44.2,45.1,74.5,45.1
	c125.6,0,354.8-98.5,354.8-199.2C429.3,227.9,375.5,210.9,323.5,196.6z"
		/>
		<path
			transform="translate(290, 340), scale(2.7) rotate(17)"
			d="M153.566 34.2103C150.448 37.1346 143.477 43.8114 140.407 44.6397C140.505 42.3488 148.059 32.0655 149.277 31.0911C149.913 30.5552 148.352 27.9232 147.182 27.9232C145.525 27.9232 136.948 34.5026 131.489 39.864C130.466 40.8384 129.539 41.8128 129.003 42.5924C129.734 41.2282 132.269 37.6218 134.559 34.6001C136.021 32.6936 137.825 30.6526 138.458 30.7014C138.848 30.7501 139.043 30.9937 139.043 30.7988C139.043 29.5808 137.191 27.6796 135.971 27.6796C135.737 27.6799 135.51 27.7666 135.336 27.9232C134.309 28.7123 132.709 30.5563 131.205 32.5485C130.478 32.8064 129.721 32.9718 128.952 33.041C127.002 33.1872 125.833 32.0655 124.907 30.5552C124.81 30.409 124.272 30.0193 123.787 30.068C123.151 30.1167 121.691 31.5783 121.545 32.0655C121.35 32.5527 121.837 34.0154 122.081 34.4539C118.815 39.4255 111.846 47.2229 109.117 46.1045C106.387 44.9394 116.573 28.5111 125.395 28.5111C125.736 28.5111 126.125 28.6085 126.613 28.6572C126.808 28.6572 126.955 28.6572 126.71 28.5111C126.369 28.2187 125.59 27.6828 123.737 27.6828C116.676 27.6828 107.114 34.3649 105.578 41.601C105.373 41.6182 105.171 41.6576 104.974 41.7186C103.903 42.0596 102.83 42.4494 101.758 42.8402L104.731 37.3327C105.559 35.6751 105.803 35.8213 105.949 35.9674C106.144 35.3828 104.097 32.7519 103.171 33.1903C102.821 33.3545 102.488 33.5812 101.966 34.0006C101.254 34.5725 100.19 35.5056 98.2489 37.1378C96.2592 38.8251 94.178 40.4013 92.0147 41.8594C89.87 43.2734 87.9212 44.5401 87.7263 44.3452C87.2391 43.9555 90.7978 37.9607 95.4262 34.0133C97.9385 31.9204 100.629 30.2131 103.033 29.4961C103.665 29.3008 104.318 29.181 104.979 29.1391C106.44 29.0417 107.367 29.7746 107.367 31.2352C107.367 31.966 107.075 32.5506 106.88 32.9902C106.83 33.0389 106.88 33.0876 106.977 33.0389C107.416 32.4034 107.903 31.5762 107.903 30.748C107.903 28.457 105.467 27.6765 103.56 27.6765C103.414 27.6765 103.268 27.6765 103.122 27.6849C98.5306 27.8639 93.4001 30.8073 89.5279 34.3279C88.6034 35.1655 87.7318 36.0597 86.9182 37.0054C83.5289 40.1489 79.0191 44.0561 76.8044 44.6365C77.3986 42.639 84.0712 31.5275 86.0687 31.7224C86.4585 31.7711 86.7042 32.0147 86.7042 31.8198C86.7042 30.6018 84.7554 28.6519 83.6327 28.6519C83.4976 28.6496 83.3633 28.6742 83.2378 28.7244C83.1123 28.7746 82.9981 28.8493 82.9019 28.9442C81.3968 30.1432 78.9756 33.2338 76.869 36.4345C73.4469 39.6119 68.6077 43.9025 66.1833 44.5899C66.1833 44.2001 66.3782 43.6155 66.6705 42.9323C68.1321 39.8142 72.5191 34.5016 72.7627 34.9888C72.9576 34.4041 71.3 31.7234 70.3267 32.2106C69.1087 32.8938 65.9408 35.9632 65.0628 36.7438C62.5303 38.8864 55.7073 43.8093 54.0974 44.3452C54.0439 44.3696 53.9858 44.3822 53.9269 44.3822C53.8681 44.3822 53.81 44.3696 53.7564 44.3452C53.3179 44.1016 56.973 37.9607 61.6036 34.0133C64.7704 31.3326 68.3281 29.2853 71.1549 29.1412C72.6176 29.0438 73.5433 29.7767 73.5433 31.2373C73.5433 31.9681 73.251 32.5527 73.0074 32.9923C72.9587 33.041 73.0561 33.0897 73.1535 33.041C73.6407 32.4055 74.0792 31.5783 74.0792 30.7501C74.0792 28.4592 71.6432 27.6786 69.7908 27.6786C60.823 27.6786 49.6671 38.5464 49.6671 43.8591C49.6671 44.8335 50.938 46.6859 51.8118 47.1244C51.9498 47.1948 52.0976 47.2441 52.2503 47.2706C54.2966 47.2706 63.8002 39.0824 65.2629 37.6207C64.3362 38.8388 63.0207 41.081 62.4361 42.8836C62.2412 43.6155 62.0463 44.2001 62.0463 44.6842C62.0463 45.5611 62.972 46.5853 63.6541 46.9751C63.9951 47.17 64.2387 47.2674 64.4823 47.2674C66.5636 47.2674 71.1846 43.1473 75.2062 39.1014C73.753 41.5745 72.7182 43.7977 72.7182 44.879C72.7182 45.756 73.9362 46.9751 74.7168 47.2187C74.9092 47.2572 75.1054 47.2735 75.3015 47.2674C77.1846 47.1149 80.9033 43.9724 84.4652 40.5175C83.8064 41.7493 83.4357 42.8953 83.4357 43.858C83.4517 44.1544 83.5236 44.4452 83.6475 44.7149C84.033 45.6416 84.8782 46.7273 85.5339 47.1234C85.6824 47.2099 85.8494 47.26 86.0211 47.2695C87.0452 47.2695 89.9208 45.1735 92.6937 43.033C95.4231 40.8893 98.1038 38.5009 98.8367 37.8188C99.5045 37.2286 100.204 36.6756 100.933 36.1623C100.933 36.1623 98.3251 40.848 96.7279 43.6822C96.3233 44.4003 95.9865 44.9987 95.7662 45.3768L95.5417 45.4828C90.2131 48.0522 85.2585 51.1894 81.3312 54.4378C77.0681 57.9637 74.0146 61.6199 73.0074 64.8174C72.7922 65.4287 72.6767 66.0706 72.6653 66.7186C72.6653 68.7648 74.1767 69.5931 75.9793 69.5931C76.5219 69.6004 77.063 69.5349 77.5882 69.3982C79.5889 68.8686 81.5292 67.8889 83.405 66.5745C85.3284 65.2273 87.1829 63.5263 88.9644 61.587C93.5717 56.5699 97.6886 49.9703 101.229 43.8093C102.626 43.2236 104.065 42.5977 105.506 42.0088C105.418 42.5241 105.373 43.046 105.372 43.5689C105.388 44.5606 105.779 45.5094 106.467 46.2239C107.155 46.9383 108.088 47.3654 109.079 47.4189C114.245 47.7112 124.33 40.6933 125.649 34.2114C125.892 34.3088 126.38 34.4062 127.112 34.4062C128.086 34.4069 129.056 34.259 129.986 33.9678C130.073 33.9392 130.158 33.9106 130.242 33.8799C130.222 33.9095 130.201 33.9381 130.18 33.9678C128.572 36.2089 126.721 39.0845 125.55 41.3754C124.332 43.6176 124.089 44.9331 124.186 45.2741C124.576 46.6881 125.745 48.2471 127.208 47.9061C126.476 47.565 126.817 46.2496 128.134 44.6895C128.678 43.9734 129.264 43.2898 129.888 42.6421C133.489 38.7434 140.659 32.8472 144.655 31.0435C142.121 33.3344 136.467 41.4728 136.467 44.251C136.467 44.7869 136.808 45.5219 137.345 46.1511C137.832 46.7368 138.368 47.1753 138.855 47.1753C141.78 47.1753 149.723 39.1332 153.963 34.5037C154.103 34.3543 153.859 33.9646 153.566 34.2103ZM91.518 52.0802C88.5439 56.4311 85.375 60.405 82.1647 63.1842C80.9171 64.2656 79.6641 65.1659 78.4164 65.8374C77.6369 66.2271 76.8086 66.5194 76.1255 66.5194C75.49 66.5194 75.0536 66.2758 75.0536 65.5938C75.0536 65.1066 75.2972 64.4287 75.8332 63.4501C77.1582 60.9897 78.9915 58.6479 81.256 56.429C84.7331 53.0207 89.2313 49.9036 94.4815 47.098C94.6171 47.0249 94.7526 46.9518 94.8893 46.8798C93.8026 48.6379 92.6757 50.3876 91.518 52.0802Z"
			fill="#ff3a33"
		/>
	</g>
</svg>
