<?xml version="1.0" encoding="utf-8"?>
<!-- Generator: Adobe Illustrator 25.2.3, SVG Export Plug-In . SVG Version: 6.00 Build 0)  -->
<svg
	version="1.1"
	id="Layer_1"
	xmlns="http://www.w3.org/2000/svg"
	xmlns:xlink="http://www.w3.org/1999/xlink"
	x="0px"
	y="0px"
	viewBox="0 0 486.8 478.2"
	style="enable-background: new 0 0 486.8 478.2"
	xml:space="preserve"
>
	<style type="text/css">
		.st0 {
			fill: #cf3f2f;
		}
	</style>
	<g id="Layer_2_1_">
		<g id="Layer_1-2">
			<path
				class="st0"
				d="M323.5,196.6c-46.5-12.9-90.6-24.4-90.6-51.1c0-47.4,135.3-123.3,194.2-129.8c6-0.4,12-0.9,17-0.9
			c17.5,0,29.9,4.1,27.6,18.9c-6,41.9-95.7,93.4-114.6,93.4c-2.8,0-5.5,0-5.5-2.8c0-6.4,2.8-16.1,9.7-23.9
			c-9.2,5.5-27.1,25.3-27.1,44.2c0,10.1,13.8,13.8,23,13.8c48.8,0,128.8-59.4,129.8-114.1c0.5-35.4-27.6-45.5-69.4-44.2
			c-67.2,2.3-215.8,64-215.8,141.3c0,40.5,62.6,48.8,117.8,64c45.1,12.4,83.3,29.4,83.3,58c0,69.5-224.6,180.4-335.5,180.4
			c-14.7,0-38.7-0.5-38.7-18.4c0-34,116.9-135.7,238.8-168.9C208,255,0,365,0,433.1c0,36.4,44.2,45.1,74.5,45.1
			c125.6,0,354.8-98.5,354.8-199.2C429.3,227.9,375.5,210.9,323.5,196.6z"
			/>
		</g>
	</g>
</svg>
