<svg width="210" height="120" viewBox="0 0 210 120" fill="none" xmlns="http://www.w3.org/2000/svg">
<path d="M137.853 30.9389C136.064 24.7328 131.931 19.4062 127.029 15.204C122.57 11.38 117.35 8.02769 112.085 5.42151C107.291 3.04524 102.467 1.52485 97.047 0C104.78 3.61187 112.351 8.96366 117.954 15.4012C122.06 20.1167 125.297 25.9328 125.184 32.3511C125.092 37.6153 122.598 42.1943 119.741 46.6205C125.162 41.69 132.344 37.5723 138.772 37.3172C138.766 35.1585 138.456 33.0114 137.853 30.9389Z" fill="#ED1C24"/>
<path d="M111.372 94.487C117.221 107.419 129.445 113.945 141.445 120C131.363 113.985 119.595 100.717 119.155 87.4947C116.661 90.2121 114.065 92.5943 111.372 94.487Z" fill="#ED1C24"/>
<path d="M109.559 73.8601C109.985 70.8559 110.706 67.9011 111.713 65.0388C112.306 65.822 112.973 66.4954 113.586 66.8737C113.96 67.0995 114.387 67.2256 114.824 67.24C116.292 67.24 118.998 65.5728 124.807 61.0858C127.716 58.7985 130.467 56.4193 132.099 54.9656C131.041 56.8628 129.859 58.9706 128.926 60.6289C128.531 61.2331 128.136 61.8358 127.74 62.4371L127.444 62.8821C120.884 66.0638 114.754 69.8299 109.559 73.8601Z" fill="#ED1C24"/>
<path d="M110.012 86.5572C109.492 84.2286 109.219 81.8515 109.198 79.4655C113.045 75.7572 117.887 72.1973 123.636 68.8435C122.958 69.9738 122.269 71.1768 121.63 72.4035C117.511 78.4227 113.609 83.1753 110.012 86.5572Z" fill="#ED1C24"/>
<path d="M119.698 59.6885C119.908 59.8977 122.002 58.536 124.305 57.0185C126.63 55.4497 128.868 53.7537 131.007 51.9382C133.092 50.1849 134.235 49.1822 135 48.5681C135.569 47.0068 135.952 45.3837 136.14 43.7325C133.559 44.5038 130.669 46.3372 127.97 48.5874C122.997 52.8282 119.174 59.2687 119.698 59.6885Z" fill="#ED1C24"/>
<path d="M145.643 73.3112H144.217V75.1639H143.3V70.6205H145.814V71.3859H144.217V72.5488H145.643V73.3112Z" fill="white"/>
<path d="M150.501 73.3009C150.501 73.91 150.357 74.3837 150.069 74.7219C149.92 74.891 149.735 75.0243 149.527 75.1116C149.319 75.199 149.095 75.2381 148.87 75.2262C148.645 75.2377 148.42 75.1988 148.213 75.1123C148.005 75.0258 147.819 74.8939 147.669 74.7263C147.378 74.3931 147.23 73.9253 147.224 73.3231V72.5458C147.224 71.9229 147.369 71.4358 147.658 71.0848C147.811 70.9197 147.996 70.7878 148.202 70.6972C148.408 70.6067 148.63 70.5595 148.855 70.5585C149.08 70.5575 149.302 70.6028 149.509 70.6916C149.716 70.7803 149.902 70.9106 150.056 71.0744C150.352 71.42 150.501 71.9021 150.501 72.5251V73.3009ZM149.581 72.5399C149.601 72.2255 149.541 71.9112 149.406 71.6262C149.349 71.5352 149.269 71.4601 149.176 71.4077C149.082 71.3553 148.976 71.3272 148.868 71.326C148.761 71.3248 148.655 71.3506 148.56 71.4009C148.464 71.4513 148.383 71.5247 148.324 71.6143C148.19 71.8872 148.127 72.1901 148.143 72.4939V73.3009C148.143 73.6964 148.202 73.9896 148.321 74.1805C148.379 74.2726 148.46 74.3474 148.556 74.397C148.653 74.4466 148.761 74.4692 148.87 74.4623C148.975 74.468 149.08 74.4455 149.174 74.397C149.268 74.3485 149.347 74.2758 149.403 74.1864C149.538 73.9214 149.599 73.6255 149.581 73.329V72.5399Z" fill="white"/>
<path d="M155.306 73.3009C155.306 73.91 155.162 74.3837 154.875 74.7219C154.726 74.891 154.541 75.0243 154.333 75.1116C154.125 75.199 153.9 75.2381 153.675 75.2262C153.451 75.2375 153.226 75.1985 153.018 75.112C152.811 75.0256 152.625 74.8938 152.474 74.7263C152.184 74.3931 152.035 73.9253 152.029 73.3231V72.5459C152.029 71.9229 152.174 71.4358 152.462 71.0848C152.615 70.9197 152.8 70.7877 153.006 70.6972C153.212 70.6066 153.435 70.5594 153.66 70.5584C153.885 70.5574 154.107 70.6027 154.314 70.6915C154.521 70.7803 154.707 70.9106 154.861 71.0744C155.158 71.42 155.306 71.9021 155.306 72.5251V73.3009ZM154.387 72.5399C154.407 72.2254 154.347 71.911 154.212 71.6262C154.155 71.5353 154.075 71.4601 153.981 71.4077C153.887 71.3553 153.782 71.3272 153.674 71.326C153.566 71.3248 153.46 71.3506 153.365 71.401C153.27 71.4513 153.189 71.5247 153.13 71.6143C152.996 71.8874 152.933 72.1901 152.949 72.4939V73.3009C152.949 73.6964 153.008 73.9896 153.127 74.1805C153.184 74.2726 153.266 74.3474 153.362 74.397C153.459 74.4466 153.567 74.4692 153.675 74.4623C153.781 74.468 153.886 74.4455 153.98 74.397C154.074 74.3485 154.153 74.2758 154.209 74.1864C154.326 74.0025 154.384 73.7162 154.387 73.329V72.5399Z" fill="white"/>
<path d="M156.923 75.1639V70.6205H158.124C158.359 70.6097 158.594 70.6493 158.813 70.7365C159.032 70.8237 159.229 70.9566 159.393 71.1263C159.707 71.4625 159.868 71.9243 159.875 72.5117V73.2534C159.875 73.8467 159.717 74.3149 159.402 74.6581C159.086 75.0012 158.652 75.1713 158.1 75.1683L156.923 75.1639ZM157.84 71.3859V74.4029H158.115C158.42 74.4029 158.635 74.3229 158.761 74.1612C158.887 73.9995 158.951 73.7162 158.957 73.3261V72.534C158.957 72.1097 158.898 71.8131 158.779 71.644C158.707 71.5546 158.614 71.4839 158.509 71.4379C158.403 71.392 158.289 71.3721 158.174 71.38L157.84 71.3859Z" fill="white"/>
<path d="M165.49 72.6186H166.38V73.4388H165.49V74.7085H164.654V73.4388H163.755V72.6186H164.654V71.4008H165.49V72.6186Z" fill="white"/>
<path d="M170.345 75.1639V70.6205H171.546C171.781 70.6096 172.015 70.6491 172.234 70.7363C172.453 70.8235 172.65 70.9565 172.813 71.1263C173.129 71.4626 173.289 71.9244 173.295 72.5117V73.2534C173.295 73.8467 173.138 74.315 172.822 74.6581C172.507 75.0012 172.073 75.1713 171.52 75.1684L170.345 75.1639ZM171.261 71.3859V74.403H171.537C171.842 74.403 172.057 74.3229 172.182 74.1612C172.306 73.9995 172.371 73.7162 172.379 73.3261V72.534C172.379 72.1098 172.32 71.8131 172.201 71.644C172.129 71.5546 172.036 71.4839 171.931 71.4379C171.825 71.392 171.711 71.3721 171.596 71.38L171.261 71.3859Z" fill="white"/>
<path d="M176.287 73.5041H175.832V75.1639H174.914V70.6205H176.378C176.837 70.6205 177.192 70.7407 177.442 70.978C177.573 71.1116 177.674 71.2711 177.738 71.4461C177.803 71.6211 177.831 71.8078 177.819 71.9941C177.819 72.5983 177.6 73.0205 177.161 73.2608L177.955 75.1209V75.1639H176.969L176.287 73.5041ZM175.832 72.7402H176.353C176.431 72.7454 176.509 72.7316 176.581 72.6998C176.653 72.668 176.716 72.6192 176.765 72.5577C176.862 72.4136 176.91 72.2419 176.901 72.0682C176.901 71.6124 176.724 71.3849 176.369 71.3859H175.832V72.7402Z" fill="white"/>
<path d="M180.365 75.1639H179.447V70.6205H180.365V75.1639Z" fill="white"/>
<path d="M185.269 75.1639H184.352L183.018 72.1839V75.1639H182.101V70.6205H183.018L184.363 73.6035V70.6205H185.276L185.269 75.1639Z" fill="white"/>
<path d="M188.241 73.4106L187.88 73.866V75.1639H186.963V70.6205H187.88V72.6022L188.176 72.1127L189.021 70.6205H190.144L188.843 72.6185L190.166 75.1639H189.078L188.241 73.4106Z" fill="white"/>
<path d="M47.9645 39.0348C41.0741 37.1243 34.5232 35.417 34.5232 31.4581C34.5232 24.4287 54.5821 13.1674 63.3156 12.2106C64.2052 12.1424 65.0949 12.0742 65.8363 12.0742C68.4281 12.0742 70.2712 12.6882 69.9302 14.8732C69.0405 21.0838 55.7386 28.7288 52.9406 28.7288C52.5314 28.7288 52.1222 28.7288 52.1222 28.3194C52.1222 27.3641 52.5314 25.9298 53.5545 24.7698C52.1904 25.5886 49.5303 28.5241 49.5303 31.3216C49.5303 32.8242 51.5765 33.3701 52.9406 33.3701C60.1736 33.3701 72.0446 24.5651 72.181 16.4425C72.2492 11.1871 68.0871 9.68602 61.8788 9.89071C51.9175 10.2319 29.8792 19.3839 29.8792 30.844C29.8792 36.8514 39.1583 38.0796 47.3462 40.3372C54.032 42.181 59.6961 44.7056 59.6961 48.9404C59.6961 59.2465 26.4006 75.6964 9.95677 75.6964C7.77414 75.6964 4.22588 75.6282 4.22588 72.9656C4.22588 67.9149 21.5564 52.8311 39.6358 47.9169C30.8415 47.7033 0 64.0153 0 74.1182C0 79.5056 6.54937 80.8064 11.0525 80.8064C29.679 80.8064 63.6566 66.2002 63.6566 51.2529C63.6566 43.6761 55.6749 41.15 47.9645 39.0348Z" fill="white"/>
<path d="M115.985 38.0796C116.803 36.9196 119.942 34.1206 121.102 33.643C121.852 33.3018 122.399 33.5748 122.536 33.5748C122.809 33.5748 122.399 32.5513 121.785 31.869C120.896 30.844 119.397 29.4793 117.828 29.684C116.049 30.2299 113.461 34.6665 113.528 36.6467C113.598 37.8749 115.03 39.3078 115.985 38.0796Z" fill="white"/>
<path d="M209.387 47.911C205.022 52.0064 195.264 61.3572 190.965 62.5172C191.103 59.3088 201.678 44.9073 203.383 43.5426C204.273 42.7921 202.088 39.1061 200.451 39.1061C198.13 39.1061 186.123 48.3204 178.48 55.8289C177.048 57.1936 175.751 58.5582 175 59.6499C176.023 57.7394 179.572 52.6887 182.779 48.4569C184.825 45.7869 187.35 42.9285 188.237 42.9968C188.783 43.065 189.056 43.4062 189.056 43.1332C189.056 41.4274 186.464 38.7649 184.755 38.7649C184.427 38.7652 184.11 38.8867 183.866 39.1061C182.429 40.2111 180.189 42.7936 178.083 45.5837C177.065 45.9448 176.005 46.1765 174.929 46.2734C172.199 46.4781 170.562 44.9073 169.267 42.7921C169.13 42.5874 168.377 42.0415 167.698 42.1098C166.808 42.178 164.763 44.225 164.559 44.9073C164.286 45.5896 164.968 47.6381 165.309 48.2522C160.738 55.2148 150.981 66.135 147.16 64.5686C143.339 62.9369 157.599 39.9293 169.949 39.9293C170.426 39.9293 170.972 40.0658 171.654 40.134C171.927 40.134 172.133 40.134 171.79 39.9293C171.313 39.5199 170.221 38.7693 167.628 38.7693C157.742 38.7693 144.356 48.1276 142.206 58.2615C141.919 58.2857 141.636 58.3409 141.361 58.4262C139.86 58.9038 138.358 59.4497 136.858 59.997L141.02 52.2838C142.179 49.9624 142.52 50.1671 142.725 50.3718C142.998 49.553 140.133 45.8685 138.836 46.4826C138.346 46.7125 137.879 47.0299 137.15 47.6173C136.152 48.4183 134.663 49.7251 131.945 52.0109C129.16 54.3739 126.246 56.5814 123.218 58.6235C120.215 60.6037 117.487 62.3777 117.214 62.1048C116.532 61.559 121.514 53.1634 127.994 47.6351C131.511 44.7041 135.277 42.313 138.643 41.3088C139.528 41.0354 140.442 40.8676 141.367 40.8089C143.413 40.6724 144.71 41.6989 144.71 43.7444C144.71 44.7679 144.301 45.5866 144.028 46.2022C143.959 46.2705 144.028 46.3387 144.165 46.2704C144.779 45.3805 145.461 44.222 145.461 43.062C145.461 39.8536 142.05 38.7604 139.381 38.7604C139.177 38.7604 138.972 38.7604 138.768 38.7723C132.34 39.023 125.157 43.1451 119.736 48.0756C118.442 49.2487 117.222 50.501 116.083 51.8255C111.338 56.2279 105.024 61.6999 101.924 62.5127C102.756 59.7152 112.097 44.1538 114.894 44.4267C115.439 44.4949 115.783 44.8361 115.783 44.5632C115.783 42.8573 113.055 40.1266 111.483 40.1266C111.294 40.1233 111.106 40.1578 110.93 40.2281C110.755 40.2984 110.595 40.4031 110.46 40.536C108.353 42.2151 104.963 46.5434 102.014 51.026C97.2234 55.4759 90.4487 61.4848 87.0546 62.4475C87.0546 61.9016 87.3274 61.0828 87.7367 60.1261C89.7829 55.7592 95.9245 48.3189 96.2655 49.0012C96.5384 48.1824 94.2178 44.4282 92.8552 45.1105C91.15 46.0672 86.7151 50.3659 85.4858 51.4591C81.9406 54.4598 72.3886 61.3543 70.1348 62.1048C70.0598 62.1389 69.9784 62.1566 69.8961 62.1566C69.8137 62.1566 69.7323 62.1389 69.6573 62.1048C69.0435 61.7637 74.1605 53.1634 80.6431 47.6351C85.0766 43.8808 90.0572 41.0136 94.0147 40.8119C96.0624 40.6754 97.3583 41.7018 97.3583 43.7473C97.3583 44.7708 96.9491 45.5896 96.6081 46.2052C96.5399 46.2734 96.6763 46.3416 96.8127 46.2734C97.4948 45.3834 98.1086 44.225 98.1086 43.065C98.1086 39.8566 94.6983 38.7634 92.1049 38.7634C79.5503 38.7634 63.9324 53.9837 63.9324 61.424C63.9324 62.7886 65.7117 65.3829 66.935 65.997C67.1282 66.0956 67.3351 66.1646 67.5488 66.2017C70.4135 66.2017 83.7184 54.7342 85.7661 52.6873C84.4687 54.3931 82.6271 57.5332 81.8086 60.0578C81.5358 61.0828 81.2629 61.9016 81.2629 62.5795C81.2629 63.8077 82.5589 65.242 83.5138 65.7879C83.9912 66.0608 84.3323 66.1973 84.6733 66.1973C87.5869 66.1973 94.0562 60.4272 99.6863 54.7609C97.6519 58.2245 96.2033 61.3379 96.2033 62.8524C96.2033 64.0806 97.9084 65.7879 99.0012 66.129C99.2706 66.1829 99.5452 66.2058 99.8197 66.1973C102.456 65.9837 107.662 61.5827 112.649 56.7441C111.726 58.4692 111.207 60.0742 111.207 61.4225C111.23 61.8376 111.33 62.2448 111.504 62.6225C112.044 63.9204 113.227 65.4408 114.145 65.9955C114.353 66.1167 114.586 66.1868 114.827 66.2002C116.261 66.2002 120.286 63.2648 124.168 60.267C127.989 57.2648 131.742 53.9199 132.768 52.9646C133.703 52.1381 134.683 51.3637 135.703 50.6447C135.703 50.6447 132.052 57.2069 129.816 61.1763C129.25 62.1819 128.778 63.02 128.47 63.5496L128.155 63.6979C120.696 67.2964 113.759 71.69 108.261 76.2393C102.293 81.1772 98.0182 86.2976 96.6081 90.7758C96.3068 91.6319 96.1451 92.5308 96.1291 93.4383C96.1291 96.3041 98.245 97.464 100.769 97.464C101.528 97.4743 102.286 97.3825 103.021 97.1911C105.822 96.4494 108.538 95.0774 111.164 93.2366C113.857 91.3498 116.453 88.9676 118.947 86.2517C125.397 79.2252 131.161 69.9827 136.118 61.3543C138.074 60.534 140.087 59.6573 142.105 58.8326C141.981 59.5544 141.918 60.2852 141.917 61.0175C141.939 62.4064 142.487 63.7352 143.45 64.7358C144.413 65.7364 145.72 66.3345 147.107 66.4094C154.34 66.8188 168.458 56.9904 170.304 47.9125C170.645 48.0489 171.328 48.1854 172.352 48.1854C173.717 48.1863 175.074 47.9792 176.376 47.5713C176.498 47.5313 176.617 47.4912 176.735 47.4482C176.707 47.4897 176.677 47.5298 176.648 47.5713C174.397 50.71 171.805 54.7372 170.167 57.9456C168.461 61.0858 168.12 62.928 168.257 63.4057C168.802 65.3859 170.439 67.5693 172.487 67.0917C171.462 66.6141 171.94 64.7718 173.783 62.5869C174.545 61.5841 175.365 60.6267 176.238 59.7196C181.28 54.2596 191.318 46.002 196.913 43.4759C193.364 46.6843 185.449 58.0821 185.449 61.9728C185.449 62.7234 185.927 63.7528 186.679 64.6339C187.361 65.4541 188.111 66.0682 188.793 66.0682C192.887 66.0682 204.008 54.8054 209.943 48.3219C210.139 48.1127 209.798 47.5669 209.387 47.911ZM122.522 72.9374C118.359 79.0309 113.922 84.5963 109.428 88.4885C107.681 90.003 105.927 91.2638 104.181 92.2042C103.089 92.7501 101.93 93.1594 100.973 93.1594C100.084 93.1594 99.4728 92.8183 99.4728 91.863C99.4728 91.1807 99.8138 90.2314 100.564 88.8608C102.419 85.4151 104.986 82.1355 108.156 79.0279C113.024 74.2546 119.321 69.8892 126.671 65.9599C126.861 65.8576 127.051 65.7552 127.242 65.6544C125.721 68.1167 124.143 70.5671 122.522 72.9374Z" fill="white"/>
</svg>
