<svg xmlns="http://www.w3.org/2000/svg" viewBox="0 0 1416.24 809.01">
	<defs>
		<style>
			.cls-1 {
				fill: #ed1c24;
			}
			.cls-2 {
				fill: #fff;
			}
		</style>
	</defs>
	<g id="Layer_2" data-name="Layer 2">
		<g id="Layer_1-2" data-name="Layer 1">
			<path
				class="cls-1"
				d="M929.7,208.58c-12.06-41.84-39.94-77.75-73-106.08-30.07-25.78-65.27-48.38-100.78-65.95C723.59,20.53,691.05,10.28,654.5,0c52.15,24.35,103.21,60.43,141,103.83,27.69,31.79,49.52,71,48.76,114.27-.62,35.49-17.44,66.36-36.71,96.2,36.56-33.24,85-61,128.35-62.72A155.33,155.33,0,0,0,929.7,208.58Z"
			/>
			<path
				class="cls-1"
				d="M751.11,637C790.56,724.18,873,768.18,953.93,809c-68-40.55-147.36-130-150.33-219.14C786.78,608.18,769.27,624.24,751.11,637Z"
			/>
			<path
				class="cls-1"
				d="M738.88,497.94a310.81,310.81,0,0,1,14.53-59.47c4,5.28,8.5,9.82,12.63,12.37a17.29,17.29,0,0,0,8.35,2.47c9.9,0,28.15-11.24,67.33-41.49,19.62-15.42,38.17-31.46,49.18-41.26-7.14,12.79-15.11,27-21.4,38.18q-4,6.11-8,12.19l-2,3C815.26,445.38,773.92,470.77,738.88,497.94Z"
			/>
			<path
				class="cls-1"
				d="M741.94,583.54a228.12,228.12,0,0,1-5.49-47.81c25.94-25,58.6-49,97.37-71.61-4.57,7.62-9.22,15.73-13.53,24C792.51,528.7,766.2,560.74,741.94,583.54Z"
			/>
			<path
				class="cls-1"
				d="M807.26,402.4c1.42,1.41,15.54-7.77,31.07-18a514.19,514.19,0,0,0,45.2-34.25c14.06-11.82,21.77-18.58,26.93-22.72a142.17,142.17,0,0,0,7.69-32.6c-17.41,5.2-36.9,17.56-55.1,32.73C829.51,356.15,803.73,399.57,807.26,402.4Z"
			/>
			<path class="cls-2" d="M982.24,494.24h-9.62v12.49h-6.18V476.1h16.95v5.16H972.62v7.84h9.62Z" />
			<path
				class="cls-2"
				d="M1015,494.17q0,6.16-2.91,9.58a10.07,10.07,0,0,1-8.09,3.4,10.18,10.18,0,0,1-8.1-3.37q-2.94-3.37-3-9.46v-5.24q0-6.3,2.93-9.85a11.06,11.06,0,0,1,16.17-.07c2,2.33,3,5.58,3,9.78Zm-6.2-5.13a12.61,12.61,0,0,0-1.18-6.16,4.35,4.35,0,0,0-7.3-.08,12,12,0,0,0-1.22,5.93v5.44q0,4,1.2,5.93a4.06,4.06,0,0,0,3.7,1.9,4,4,0,0,0,3.6-1.86,11.3,11.3,0,0,0,1.2-5.78Z"
			/>
			<path
				class="cls-2"
				d="M1047.41,494.17q0,6.16-2.91,9.58a10.07,10.07,0,0,1-8.09,3.4,10.2,10.2,0,0,1-8.1-3.37q-2.94-3.37-3-9.46v-5.24q0-6.3,2.92-9.85a11.07,11.07,0,0,1,16.18-.07c2,2.33,3,5.58,3,9.78Zm-6.2-5.13a12.5,12.5,0,0,0-1.18-6.16,4.35,4.35,0,0,0-7.3-.08,12.08,12.08,0,0,0-1.22,5.93v5.44q0,4,1.2,5.93a4.06,4.06,0,0,0,3.7,1.9,4,4,0,0,0,3.6-1.86c.79-1.24,1.18-3.17,1.2-5.78Z"
			/>
			<path
				class="cls-2"
				d="M1058.31,506.73V476.1h8.1a11.18,11.18,0,0,1,8.56,3.41q3.18,3.4,3.25,9.34v5q0,6-3.19,9.47t-8.78,3.44Zm6.19-25.47V501.6h1.85c2.06,0,3.51-.54,4.36-1.63s1.28-3,1.32-5.63V489c0-2.86-.4-4.86-1.2-6a4.82,4.82,0,0,0-4.08-1.78Z"
			/>
			<path
				class="cls-2"
				d="M1116.09,489.57h6v5.53h-6v8.56h-5.64V495.1h-6.06v-5.53h6.06v-8.21h5.64Z"
			/>
			<path
				class="cls-2"
				d="M1148.83,506.73V476.1h8.1a11.14,11.14,0,0,1,8.55,3.41q3.19,3.4,3.25,9.34v5q0,6-3.19,9.47t-8.78,3.44Zm6.18-25.47V501.6h1.86c2.06,0,3.51-.54,4.35-1.63s1.28-3,1.33-5.63V489c0-2.86-.4-4.86-1.2-6a4.82,4.82,0,0,0-4.08-1.78Z"
			/>
			<path
				class="cls-2"
				d="M1188.91,495.54h-3.07v11.19h-6.19V476.1h9.87c3.1,0,5.49.81,7.18,2.41a9,9,0,0,1,2.54,6.85q0,6.11-4.44,8.54l5.36,12.54v.29h-6.65Zm-3.07-5.15h3.51a3.27,3.27,0,0,0,2.78-1.23,5.41,5.41,0,0,0,.92-3.3q0-4.61-3.59-4.6h-3.62Z"
			/>
			<path class="cls-2" d="M1216.41,506.73h-6.19V476.1h6.19Z" />
			<path
				class="cls-2"
				d="M1249.48,506.73h-6.18l-9-20.09v20.09h-6.18V476.1h6.18l9.07,20.11V476.1h6.16Z"
			/>
			<path
				class="cls-2"
				d="M1269.53,494.91l-2.44,3.07v8.75h-6.18V476.1h6.18v13.36l2-3.3,5.7-10.06h7.57l-8.77,13.47,8.92,17.16h-7.34Z"
			/>
			<path
				class="cls-2"
				d="M323.48,263.16c-46.47-12.88-90.65-24.39-90.65-51.08,0-47.39,135.28-123.31,194.18-129.76,6-.46,12-.92,17-.92,17.48,0,29.91,4.14,27.61,18.87-6,41.87-95.71,93.41-114.58,93.41-2.76,0-5.52,0-5.52-2.76,0-6.44,2.76-16.11,9.66-23.93-9.2,5.52-27.14,25.31-27.14,44.17,0,10.13,13.8,13.81,23,13.81,48.78,0,128.84-59.36,129.76-114.12.46-35.43-27.61-45.55-69.48-44.17-67.18,2.3-215.81,64-215.81,141.26,0,40.5,62.58,48.78,117.8,64,45.09,12.43,83.29,29.45,83.29,58,0,69.48-224.55,180.38-335.45,180.38-14.72,0-38.65-.46-38.65-18.41,0-34.05,116.88-135.74,238.81-168.87C208,321.6,0,431.57,0,499.68,0,536,44.17,544.77,74.54,544.77c125.62,0,354.77-98.47,354.77-199.24C429.31,294.45,375.48,277.42,323.48,263.16Z"
			/>
			<path
				class="cls-2"
				d="M782.22,256.72c5.52-7.82,26.69-26.69,34.51-29.91,5.06-2.3,8.75-.46,9.67-.46,1.84,0-.92-6.9-5.06-11.5-6-6.91-16.11-16.11-26.69-14.73-12,3.68-29.45,33.59-29,46.94C766.12,255.34,775.78,265,782.22,256.72Z"
			/>
			<path
				class="cls-2"
				d="M1412.14,323c-29.44,27.61-95.25,90.65-124.24,98.47.93-21.63,72.25-118.72,83.75-127.92,6-5.06-8.74-29.91-19.78-29.91-15.65,0-96.63,62.12-148.17,112.74-9.66,9.2-18.41,18.4-23.47,25.76,6.9-12.88,30.83-46.93,52.46-75.46,13.8-18,30.83-37.27,36.81-36.81,3.68.46,5.52,2.76,5.52.92,0-11.5-17.48-29.45-29-29.45a9,9,0,0,0-6,2.3c-9.69,7.45-24.8,24.86-39,43.67a87,87,0,0,1-21.27,4.65c-18.41,1.38-29.45-9.21-38.19-23.47-.92-1.38-6-5.06-10.58-4.6-6,.46-19.79,14.26-21.17,18.86-1.84,4.6,2.76,18.41,5.06,22.55-30.83,46.94-96.63,120.56-122.4,110-25.77-11,70.4-166.11,153.69-166.11,3.22,0,6.9.92,11.5,1.38,1.84,0,3.23,0,.92-1.38-3.22-2.76-10.58-7.82-28.07-7.82-66.67,0-156.95,63.09-171.45,131.41a26.82,26.82,0,0,0-5.7,1.11c-10.12,3.22-20.25,6.9-30.37,10.59l28.07-52c7.82-15.65,10.12-14.27,11.5-12.89,1.84-5.52-17.48-30.36-26.23-26.22-3.3,1.55-6.45,3.69-11.37,7.65-6.73,5.4-16.77,14.21-35.1,29.62A670,670,0,0,1,831,395.22c-20.25,13.35-38.65,25.31-40.49,23.47-4.6-3.68,29-60.28,72.7-97.55,23.72-19.76,49.12-35.88,71.82-42.65a79.29,79.29,0,0,1,18.37-3.37c13.8-.92,22.55,6,22.55,19.79,0,6.9-2.76,12.42-4.6,16.57-.47.46,0,.92.92.46,4.14-6,8.74-13.81,8.74-21.63,0-21.63-23-29-41-29-1.38,0-2.76,0-4.14.08-43.35,1.69-91.79,29.48-128.35,62.72a284.36,284.36,0,0,0-24.64,25.28c-32,29.68-74.58,66.57-95.49,72.05C693,402.58,756,297.67,774.86,299.51c3.68.46,6,2.76,6,.92,0-11.5-18.4-29.91-29-29.91a9.59,9.59,0,0,0-6.9,2.76C730.75,284.6,707.89,313.78,688,344c-32.31,30-78,70.51-100.89,77,0-3.68,1.84-9.2,4.6-15.65,13.8-29.44,55.22-79.6,57.52-75,1.84-5.52-13.81-30.83-23-26.23-11.5,6.45-41.41,35.43-49.7,42.8C552.62,367.15,488.2,413.63,473,418.69a3.89,3.89,0,0,1-3.22,0c-4.14-2.3,30.37-60.28,74.09-97.55,29.9-25.31,63.49-44.64,90.18-46,13.81-.92,22.55,6,22.55,19.79,0,6.9-2.76,12.42-5.06,16.57-.46.46.46.92,1.38.46,4.6-6,8.74-13.81,8.74-21.63,0-21.63-23-29-40.49-29-84.67,0-190,102.61-190,152.77,0,9.2,12,26.69,20.25,30.83a14.62,14.62,0,0,0,4.14,1.38c19.32,0,109.05-77.31,122.86-91.11-8.75,11.5-21.17,32.67-26.69,49.69-1.84,6.91-3.68,12.43-3.68,17,0,8.28,8.74,17.95,15.18,21.63,3.22,1.84,5.52,2.76,7.82,2.76,19.65,0,63.28-38.9,101.25-77.1-13.72,23.35-23.49,44.34-23.49,54.55,0,8.28,11.5,19.79,18.87,22.09a24.31,24.31,0,0,0,5.52.46c17.78-1.44,52.89-31.11,86.52-63.73C753.5,394.18,750,405,750,414.09a22.24,22.24,0,0,0,2,8.09c3.64,8.75,11.62,19,17.81,22.74a10.28,10.28,0,0,0,4.6,1.38c9.67,0,36.82-19.79,63-40,25.77-20.24,51.08-42.79,58-49.23a229.6,229.6,0,0,1,19.79-15.64s-24.62,44.24-39.7,71c-3.82,6.78-7,12.43-9.08,16l-2.12,1c-50.31,24.26-97.09,53.88-134.17,84.55-40.25,33.29-69.08,67.81-78.59,98a57.07,57.07,0,0,0-3.23,17.95c0,19.32,14.27,27.14,31.29,27.14a57.22,57.22,0,0,0,15.19-1.84c18.89-5,37.21-14.25,54.92-26.66,18.16-12.72,35.67-28.78,52.49-47.09C845.7,534.11,884.57,471.8,918,413.63c13.19-5.53,26.77-11.44,40.38-17a88,88,0,0,0-1.27,14.73,37,37,0,0,0,35,36.35c48.78,2.76,144-63.5,156.45-124.7,2.3.92,6.9,1.84,13.81,1.84a90.63,90.63,0,0,0,27.14-4.14c.82-.27,1.62-.54,2.42-.83-.19.28-.39.55-.59.83-15.18,21.16-32.66,48.31-43.71,69.94-11.5,21.17-13.8,33.59-12.88,36.81,3.68,13.35,14.72,28.07,28.53,24.85-6.91-3.22-3.69-15.64,8.74-30.37a218,218,0,0,1,16.56-19.33c34-36.81,101.7-92.48,139.43-109.51-23.93,21.63-77.31,98.47-77.31,124.7,0,5.06,3.22,12,8.29,17.94,4.6,5.53,9.66,9.67,14.26,9.67,27.61,0,102.61-75.93,142.64-119.64C1417.21,324.36,1414.91,320.68,1412.14,323ZM826.31,491.72c-28.08,41.08-58,78.6-88.31,104.84-11.78,10.21-23.61,18.71-35.39,25.05-7.36,3.68-15.18,6.44-21.63,6.44-6,0-10.12-2.3-10.12-8.74,0-4.6,2.3-11,7.36-20.24,12.51-23.23,29.82-45.34,51.2-66.29,32.83-32.18,75.3-61.61,124.87-88.1,1.28-.69,2.56-1.38,3.85-2.06C847.88,459.22,837.24,475.74,826.31,491.72Z"
			/>
		</g>
	</g>
</svg>
